<?xml version="1.0" encoding="utf-8"?>
<!-- Generator: Adobe Illustrator 22.0.1, SVG Export Plug-In . SVG Version: 6.00 Build 0)  -->
<svg version="1.1" id="Layer_2_1_" xmlns="http://www.w3.org/2000/svg" xmlns:xlink="http://www.w3.org/1999/xlink" x="0px" y="0px"
	 viewBox="0 0 824.3 611.8" style="enable-background:new 0 0 824.3 611.8;" xml:space="preserve">
<style type="text/css">
	.st0{fill:#958BC2;stroke:#000000;stroke-width:14;stroke-miterlimit:10;}
	.st1{stroke:#000000;stroke-width:3;stroke-miterlimit:10;}
	.st2{fill:#BACCE9;stroke:#000000;stroke-width:14;stroke-miterlimit:10;}
	.st3{fill:none;stroke:#000000;stroke-width:14;stroke-miterlimit:10;}
</style>
<path class="st0" d="M206.7,70.7L206.7,70.7c123.1-84.5,285.3-85,408.9-1.4l2.1,1.4L657,35.6c37.1-33.3,93.6-32.7,130,1.5l0,0
	c39.6,37.1,40.5,99.6,2.1,137.9l-45.9,45.8c0,0,69.7,108.7,25,222c-42.5,107.7-221.8,162-354.8,162l0,0
	c-117.6,0-291.4-40.9-346.8-136c-59.7-102.5,14.5-248,14.5-248L35.2,175C-3.2,136.7-2.3,74.2,37.3,37.1l0,0
	c36.4-34.2,92.9-34.8,130.1-1.5L206.7,70.7z"/>
<circle class="st1" cx="199.2" cy="283.2" r="28.5"/>
<circle class="st1" cx="625.2" cy="283.2" r="28.5"/>
<ellipse class="st2" cx="411.4" cy="417.2" rx="157.8" ry="121"/>
<polyline class="st3" points="411.4,538.2 411.4,386.7 448.7,386.7 373.7,386.7 "/>
</svg>
