<?xml version="1.0" encoding="utf-8"?>
<!-- Generator: Adobe Illustrator 22.0.1, SVG Export Plug-In . SVG Version: 6.00 Build 0)  -->
<svg version="1.1" id="Layer_2" xmlns="http://www.w3.org/2000/svg" xmlns:xlink="http://www.w3.org/1999/xlink" x="0px" y="0px"
	 viewBox="0 0 360 312" style="enable-background:new 0 0 360 312;" xml:space="preserve">
<style type="text/css">
	.st0{fill:#958BC2;stroke:#000000;stroke-miterlimit:10;}
</style>
<path class="st0" d="M360,186.8L114.7,312c-4.5-10.6-44.7-46-50-98.7C59.7,163.5,7.5,118,0,117L206,2.2
	C218.2,80.9,301.5,166.3,360,186.8z"/>
<path class="st0" d="M313,181.5l-192,96.8c-23.1-17.9-31.4-92.3-42.9-110.6C62.5,142.7,48.7,133,39,124l158-83.8
	C203.4,69.8,270.8,162,313,181.5z"/>
<line class="st0" x1="60.4" y1="144.2" x2="208.8" y2="67"/>
<path class="st0" d="M68.2,108.5c43.3,34.6,64.3,138.5,91.8,150.1"/>
<path class="st0" d="M99.1,92.2c39.2,27.4,79.1,133.8,104.3,144.6"/>
<path class="st0" d="M136.7,72.2c20.4,21.6,71.2,124.6,107.8,143.8"/>
<path class="st0" d="M168.6,55.3c16.6,40.4,86.1,132.6,109.2,144"/>
</svg>
