<?xml version="1.0" encoding="utf-8"?>
<!-- Generator: Adobe Illustrator 22.0.1, SVG Export Plug-In . SVG Version: 6.00 Build 0)  -->
<svg version="1.1" id="Layer_2" xmlns="http://www.w3.org/2000/svg" xmlns:xlink="http://www.w3.org/1999/xlink" x="0px" y="0px"
	 viewBox="0 0 269.1 293.7" style="enable-background:new 0 0 269.1 293.7;" xml:space="preserve">
<style type="text/css">
	.st0{fill:#958BC2;stroke:#000000;stroke-width:2;stroke-miterlimit:10;}
	.st1{fill:none;stroke:#000000;stroke-width:2;stroke-miterlimit:10;}
</style>
<path class="st0" d="M31.3,66.3C20.6,59-2.2,37.7,1.4,25.9C11.7-7.8,147.5,2.5,175.2,2.4c57.1,2.3,34.1,48.1,37.3,54.2
	c28.8,25.8,37.2,130.5,55.5,186.7h0c0,29.7-108.6,48.6-108.6,48.6"/>
<path class="st0" d="M192.7,25.9H178c0,0,12,9.1,2.8,34.8c-5.4,10.5-9,15.5-17.9,14.9L31.3,66.3C5.8,115.8,23.6,191,5.8,219
	c-5.2,8.2-6.3,22.2-0.7,27.2c28.6,26,116.7,51.2,154.1,45.7c-0.6,1.5-8.2-111.3,22.4-163.4C200.2,97,200.9,26.6,192.7,25.9z"/>
<path class="st1" d="M178,25.9c-15.6-1.5-22.1,0.1-22.3,9.4c-0.2,10.2,15.4,21.2,18.4,7.5"/>
<path class="st1" d="M1.4,29.2c7.4-6.8,70.9-3.2,70.9-3.2"/>
<path class="st1" d="M177.8,267.6c0,0,20.1-21.6,29.2-24.3c9.8-2.9,40.5,5,40.5,5"/>
<path class="st1" d="M208.8,75.3c6.8,38.3-1.7,153.3-1.7,153.3"/>
</svg>
