<?xml version="1.0" encoding="utf-8"?>
<!-- Generator: Adobe Illustrator 22.0.1, SVG Export Plug-In . SVG Version: 6.00 Build 0)  -->
<svg version="1.1" id="Layer_2" xmlns="http://www.w3.org/2000/svg" xmlns:xlink="http://www.w3.org/1999/xlink" x="0px" y="0px"
	 viewBox="0 0 297.6 276.8" style="enable-background:new 0 0 297.6 276.8;" xml:space="preserve">
<style type="text/css">
	.st0{fill:#958BC2;stroke:#000000;stroke-miterlimit:10;}
	.st1{fill:none;stroke:#000000;stroke-miterlimit:10;}
</style>
<path class="st0" d="M296.8,101.3c0,0-82.8-50.8-106.6-69.7L7.3,201c14.9,21.6,131.2,75.8,141.1,75.3L296.8,101.3z"/>
<line class="st1" x1="104.7" y1="235.7" x2="243.4" y2="88.5"/>
<line class="st1" x1="243.4" y1="141.3" x2="212.5" y2="121.2"/>
<line class="st1" x1="203.9" y1="185.4" x2="174" y2="162.8"/>
<line class="st1" x1="170.9" y1="222.2" x2="139.5" y2="198.7"/>
<path class="st1" d="M36.2,199.1c12.6,11.4,98.1,51.1,107.4,53.6l129.1-144.1L201.9,60L36.2,199.1z"/>
<path class="st0" d="M250,21.5l-59.8,10.2L7.3,201c21.2-18.8,122.8,4,141.1,9.5L250,21.5z"/>
<path class="st0" d="M250,21.5c-14.3-5.7-95-25.3-106.2-17.7L2.2,174.3c15.6-0.1,126.9,18.5,146.2,36.2L250,21.5z"/>
<path class="st1" d="M181.7,148.6c-16.1-11.9-112.1-25.5-112.1-25.5l78.8-106.9c19.1-4.2,95,17.6,95,17.6L181.7,148.6z"/>
<line class="st1" x1="187.8" y1="20.1" x2="121" y2="131.7"/>
<line class="st1" x1="110.7" y1="67.3" x2="157.7" y2="70.3"/>
</svg>
